# xmcd CD database file
#
# Track frame offsets:
#	150
#	13962
#	29947
#	42583
#	58373
#	69004
#	86900
#	102581
#	121065
#	136097
#
# Disc length: 2007 seconds
#
# Revision: 1
# Processed by: cddbd v1.5.2PL0 Copyright (c) Steve Scherf et al.
# Submitted via: CDex 1.51
#
DISCID=9307d50a
DTITLE=Dwight Yoakam - Country Classics
DYEAR=2006
DGENRE=Country
TTITLE0=Guitars, Cadillacs
TTITLE1=These Arms
TTITLE2=Honky Tonk Man
TTITLE3=I Got You
TTITLE4=Crazy Little Thing Called Love
TTITLE5=This Time
TTITLE6=I Want You To Want Me
TTITLE7=King Of Fools
TTITLE8=Don't Be Sad
TTITLE9=I Hear You Knockin'
EXTD=YEAR: 2006
EXTT0=
EXTT1=
EXTT2=
EXTT3=
EXTT4=
EXTT5=
EXTT6=
EXTT7=
EXTT8=
EXTT9=
PLAYORDER=
